<?xml version="1.0" encoding="UTF-8"?>
<svg version="1.1" xmlns="http://www.w3.org/2000/svg" width="601" height="600">
<path d="M0 0 C7.41820329 -0.10510678 14.83368182 -0.20523931 22.25198364 -0.25875092 C25.70705295 -0.28506259 29.16150048 -0.32017019 32.61621094 -0.37719727 C36.58781206 -0.44234009 40.55916684 -0.46625905 44.53125 -0.48828125 C45.75863892 -0.51408768 46.98602783 -0.5398941 48.25061035 -0.56648254 C55.21965887 -0.56875025 60.86061528 -0.12334679 66 5 C68.80309658 9.74870018 68.6844309 14.62005478 68 20 C66 23.1875 66 23.1875 64 25 C64.94875 25.7425 65.8975 26.485 66.875 27.25 C70.15857111 29.81975131 71.74352074 32.19271589 72.3359375 36.3671875 C72.42485491 42.07568491 72.05561275 45.6242073 68 50 C63.71468154 52.5537059 60.59285694 53.37097668 55.62744141 53.34057617 C53.76619125 53.34023628 53.76619125 53.34023628 51.86734009 53.33988953 C50.52874381 53.32457335 49.19015129 53.30892542 47.8515625 53.29296875 C46.4700873 53.28736721 45.08860611 53.28309975 43.7071228 53.28010559 C40.08696784 53.26870058 36.46717913 53.23927169 32.84716797 53.20599365 C29.14686119 53.17519842 25.44649295 53.1614153 21.74609375 53.14648438 C14.49707332 53.11599214 7.24905609 53.05726288 0 53 C0 35.51 0 18.02 0 0 Z M22 13 C22 15.31 22 17.62 22 20 C25.95827235 20.05785647 29.9164367 20.09354717 33.875 20.125 C35.00292969 20.14175781 36.13085938 20.15851563 37.29296875 20.17578125 C38.90751953 20.18544922 38.90751953 20.18544922 40.5546875 20.1953125 C42.04718018 20.21102295 42.04718018 20.21102295 43.56982422 20.22705078 C46.18171417 20.24379401 46.18171417 20.24379401 48 18 C47.67 16.35 47.34 14.7 47 13 C38.75 13 30.5 13 22 13 Z M22 34 C22 35.98 22 37.96 22 40 C31.57 40 41.14 40 51 40 C51.33 38.35 51.66 36.7 52 35 C50.90812017 33.68224715 50.90812017 33.68224715 48.22436523 33.88647461 C47.01466064 33.89171143 45.80495605 33.89694824 44.55859375 33.90234375 C43.25341797 33.90556641 41.94824219 33.90878906 40.60351562 33.91210938 C39.2148431 33.92046599 37.82617123 33.92893095 36.4375 33.9375 C35.04492344 33.94251334 33.65234519 33.94707653 32.25976562 33.95117188 C28.8398013 33.96300566 25.41992156 33.9794912 22 34 Z " fill="#FFFFFF" transform="translate(53,274)"/>
<path d="M0 0 C4.764375 -0.20625 9.52875 -0.4125 14.4375 -0.625 C16.66391235 -0.76156006 16.66391235 -0.76156006 18.93530273 -0.90087891 C28.50167043 -1.10070196 28.50167043 -1.10070196 32.80957031 2.06396484 C35.10227082 4.59922642 37.06918769 7.18246206 39 10 C39.90109759 11.09156261 40.81267854 12.17471437 41.7421875 13.2421875 C42.44601562 14.11101562 43.14984375 14.97984375 43.875 15.875 C44.59429688 16.75929688 45.31359375 17.64359375 46.0546875 18.5546875 C47.74056014 20.67387681 49.37521486 22.83361981 51 25 C51.33 16.75 51.66 8.5 52 0 C58.93 0 65.86 0 73 0 C73 17.49 73 34.98 73 53 C49 53 49 53 41.5625 46.6875 C38.6328125 42.83203125 38.6328125 42.83203125 37.29785156 40.87744141 C35.34859767 38.05769678 33.14464233 35.49731219 30.9375 32.875 C30.26589844 32.02679688 29.59429687 31.17859375 28.90234375 30.3046875 C27.06977289 28.08452978 25.03561001 26.03561001 23 24 C22.67 33.57 22.34 43.14 22 53 C14.74 53 7.48 53 0 53 C0 35.51 0 18.02 0 0 Z " fill="#FFFFFF" transform="translate(474,274)"/>
<path d="M0 0 C4.764375 -0.20625 9.52875 -0.4125 14.4375 -0.625 C16.66391235 -0.76156006 16.66391235 -0.76156006 18.93530273 -0.90087891 C28.50167043 -1.10070196 28.50167043 -1.10070196 32.80957031 2.06396484 C35.10227082 4.59922642 37.06918769 7.18246206 39 10 C39.90109759 11.09156261 40.81267854 12.17471437 41.7421875 13.2421875 C42.44601563 14.11101562 43.14984375 14.97984375 43.875 15.875 C44.59429687 16.75929688 45.31359375 17.64359375 46.0546875 18.5546875 C47.74056014 20.67387681 49.37521486 22.83361981 51 25 C51.33 16.75 51.66 8.5 52 0 C58.93 0 65.86 0 73 0 C73 17.49 73 34.98 73 53 C49 53 49 53 41.5625 46.6875 C38.6328125 42.83203125 38.6328125 42.83203125 37.29785156 40.87744141 C35.34859767 38.05769678 33.14464233 35.49731219 30.9375 32.875 C30.26589844 32.02679688 29.59429687 31.17859375 28.90234375 30.3046875 C27.06977289 28.08452978 25.03561001 26.03561001 23 24 C22.67 33.57 22.34 43.14 22 53 C14.74 53 7.48 53 0 53 C0 35.51 0 18.02 0 0 Z " fill="#FFFFFF" transform="translate(202,274)"/>
<path d="M0 0 C4.47833579 3.56340697 6.9048975 6.95694561 8.5546875 12.421875 C8.5546875 13.741875 8.5546875 15.061875 8.5546875 16.421875 C4.80483425 16.5090497 1.05524195 16.56232503 -2.6953125 16.609375 C-4.29052734 16.64708008 -4.29052734 16.64708008 -5.91796875 16.68554688 C-6.94277344 16.69521484 -7.96757812 16.70488281 -9.0234375 16.71484375 C-9.96606445 16.7305542 -10.90869141 16.74626465 -11.87988281 16.76245117 C-14.89319293 16.36241619 -16.16553867 15.36985809 -18.4453125 13.421875 C-25.88592782 10.86230333 -33.51216942 12.14438918 -40.4453125 15.421875 C-41.60874477 17.74873953 -41.64427238 19.26908913 -41.6953125 21.859375 C-41.72109375 22.64183594 -41.746875 23.42429687 -41.7734375 24.23046875 C-41.60473181 26.44949353 -41.60473181 26.44949353 -40.3046875 28.08203125 C-35.89534761 31.2593497 -31.24784617 31.69712516 -25.9453125 31.671875 C-24.32109375 31.67960937 -24.32109375 31.67960937 -22.6640625 31.6875 C-18.90545013 31.50540118 -18.90545013 31.50540118 -13.4453125 29.421875 C-18.3953125 29.091875 -23.3453125 28.761875 -28.4453125 28.421875 C-28.4453125 25.451875 -28.4453125 22.481875 -28.4453125 19.421875 C-16.2353125 19.421875 -4.0253125 19.421875 8.5546875 19.421875 C8.5546875 29.321875 8.5546875 39.221875 8.5546875 49.421875 C4.9246875 49.421875 1.2946875 49.421875 -2.4453125 49.421875 C-3.1053125 47.441875 -3.7653125 45.461875 -4.4453125 43.421875 C-5.4559375 44.040625 -6.4665625 44.659375 -7.5078125 45.296875 C-17.50605444 51.41824762 -32.19949911 50.95380396 -43.42578125 48.76953125 C-51.75907021 46.49326357 -57.73812489 42.70097799 -62.3828125 35.359375 C-65.38337587 27.0636998 -65.75523873 16.71875674 -62.4453125 8.421875 C-57.40266603 0.54361292 -50.72693397 -3.0201384 -41.81176758 -5.16357422 C-28.54299763 -7.48797032 -11.60316925 -7.48830731 0 0 Z " fill="#FFFFFF" transform="translate(346.4453125,278.578125)"/>
<path d="M0 0 C20.79 0 41.58 0 63 0 C63 4.62 63 9.24 63 14 C49.47 14 35.94 14 22 14 C22 15.98 22 17.96 22 20 C35.53 20 49.06 20 63 20 C63 24.29 63 28.58 63 33 C49.47 33 35.94 33 22 33 C22 34.98 22 36.96 22 39 C35.53 39 49.06 39 63 39 C63 43.62 63 48.24 63 53 C42.21 53 21.42 53 0 53 C0 35.51 0 18.02 0 0 Z " fill="#FFFFFF" transform="translate(129,274)"/>
<path d="M0 0 C7.26 0 14.52 0 22 0 C22.03738281 2.20300781 22.07476562 4.40601563 22.11328125 6.67578125 C22.1594998 8.81056621 22.21073195 10.94517605 22.26245117 13.07983398 C22.29569423 14.56279854 22.32372823 16.04588944 22.34643555 17.52905273 C22.37999468 19.66184293 22.43230638 21.79347612 22.48828125 23.92578125 C22.51446533 25.20880127 22.54064941 26.49182129 22.56762695 27.8137207 C22.73471535 30.95080945 22.73471535 30.95080945 24.37182617 32.86791992 C29.69732366 36.5707737 35.77313896 36.49662082 42 36 C44.74626846 35.48618203 47.31546469 34.79541787 50 34 C51.11865755 30.35341523 51.20370892 26.8463849 51.31640625 23.046875 C51.33718735 22.38665344 51.35796844 21.72643188 51.37937927 21.04620361 C51.44450147 18.94756985 51.50358502 16.84881628 51.5625 14.75 C51.60572079 13.32290453 51.6493362 11.89582095 51.69335938 10.46875 C51.80088351 6.97928741 51.90023285 3.48972743 52 0 C58.93 0 65.86 0 73 0 C73.11529711 5.1243158 73.21466823 10.24406894 73.2746582 15.36865234 C73.29968233 17.10871696 73.33371294 18.84867773 73.37719727 20.58837891 C73.4383892 23.10084755 73.46632959 25.6119178 73.48828125 28.125 C73.51408768 28.89303955 73.5398941 29.6610791 73.56648254 30.45239258 C73.57023784 37.81237706 70.34177598 42.42404642 65.5 47.75 C53.8386231 56.30747807 36.43151161 55.52670846 22.7734375 53.70263672 C15.11365246 52.26255061 9.04250134 48.94989233 4 43 C0.11480217 36.85888085 -0.12710971 30.76055019 -0.09765625 23.6328125 C-0.0962413 22.95322479 -0.09482635 22.27363708 -0.09336853 21.57345581 C-0.08781518 19.42392388 -0.07527169 17.27449992 -0.0625 15.125 C-0.05747896 13.65885568 -0.05291711 12.19270971 -0.04882812 10.7265625 C-0.03871615 7.15096759 -0.01913224 3.57560326 0 0 Z " fill="#FFFFFF" transform="translate(361,274)"/>
<path d="M0 0 C7.26 0 14.52 0 22 0 C22 17.49 22 34.98 22 53 C14.74 53 7.48 53 0 53 C0 35.51 0 18.02 0 0 Z " fill="#FFFFFF" transform="translate(443,274)"/>
</svg>
